<mxfile host="app.diagrams.net" modified="2023-07-24T12:13:44.220Z" agent="5.0 (Windows NT 10.0; Win64; x64) AppleWebKit/537.36 (KHTML, like Gecko) Chrome/114.0.0.0 Safari/537.36" etag="Kjk9S0klLq1GQYgglXQA" version="20.8.23" type="github">
  <diagram name="Page-1" id="46wR3RdsSH38Fq0UGB0D">
    <mxGraphModel dx="1500" dy="1984" grid="1" gridSize="10" guides="1" tooltips="1" connect="1" arrows="1" fold="1" page="1" pageScale="1" pageWidth="850" pageHeight="1100" math="0" shadow="0">
      <root>
        <mxCell id="0" />
        <mxCell id="1" parent="0" />
        <mxCell id="fbwsySILPws-T8dBjuAr-22" style="edgeStyle=orthogonalEdgeStyle;rounded=0;orthogonalLoop=1;jettySize=auto;html=1;entryX=1.017;entryY=0.638;entryDx=0;entryDy=0;entryPerimeter=0;fontSize=14;" edge="1" parent="1" source="fbwsySILPws-T8dBjuAr-3" target="fbwsySILPws-T8dBjuAr-12">
          <mxGeometry relative="1" as="geometry" />
        </mxCell>
        <mxCell id="fbwsySILPws-T8dBjuAr-25" style="edgeStyle=orthogonalEdgeStyle;rounded=0;orthogonalLoop=1;jettySize=auto;html=1;entryX=0;entryY=0.5;entryDx=0;entryDy=0;fontSize=14;" edge="1" parent="1" source="fbwsySILPws-T8dBjuAr-3" target="fbwsySILPws-T8dBjuAr-8">
          <mxGeometry relative="1" as="geometry" />
        </mxCell>
        <mxCell id="fbwsySILPws-T8dBjuAr-26" style="edgeStyle=orthogonalEdgeStyle;rounded=0;orthogonalLoop=1;jettySize=auto;html=1;entryX=0.002;entryY=0.589;entryDx=0;entryDy=0;entryPerimeter=0;fontSize=14;" edge="1" parent="1" source="fbwsySILPws-T8dBjuAr-3" target="fbwsySILPws-T8dBjuAr-14">
          <mxGeometry relative="1" as="geometry" />
        </mxCell>
        <mxCell id="fbwsySILPws-T8dBjuAr-27" style="edgeStyle=orthogonalEdgeStyle;rounded=0;orthogonalLoop=1;jettySize=auto;html=1;entryX=1;entryY=0.75;entryDx=0;entryDy=0;fontSize=14;" edge="1" parent="1" source="fbwsySILPws-T8dBjuAr-3" target="fbwsySILPws-T8dBjuAr-10">
          <mxGeometry relative="1" as="geometry" />
        </mxCell>
        <mxCell id="fbwsySILPws-T8dBjuAr-3" value="&lt;font style=&quot;font-size: 18px;&quot;&gt;SALE_ID&lt;br&gt;COMPONENT_ID&lt;br&gt;BRAND_ID&lt;br&gt;MODEL_ID&lt;br&gt;QUALITY_ID&lt;br&gt;VERSION_ID&lt;br&gt;QUANTITY SOLD&lt;br&gt;SALE AMOUNT&lt;br&gt;ADDRESS_ID&lt;br&gt;DATE&lt;/font&gt;" style="rounded=0;whiteSpace=wrap;html=1;" vertex="1" parent="1">
          <mxGeometry x="340" y="170" width="180" height="270" as="geometry" />
        </mxCell>
        <mxCell id="fbwsySILPws-T8dBjuAr-23" style="edgeStyle=orthogonalEdgeStyle;rounded=0;orthogonalLoop=1;jettySize=auto;html=1;entryX=1.017;entryY=0.423;entryDx=0;entryDy=0;entryPerimeter=0;fontSize=14;" edge="1" parent="1" source="fbwsySILPws-T8dBjuAr-4" target="fbwsySILPws-T8dBjuAr-16">
          <mxGeometry relative="1" as="geometry" />
        </mxCell>
        <mxCell id="fbwsySILPws-T8dBjuAr-24" style="edgeStyle=orthogonalEdgeStyle;rounded=0;orthogonalLoop=1;jettySize=auto;html=1;entryX=0;entryY=0.5;entryDx=0;entryDy=0;fontSize=14;" edge="1" parent="1" source="fbwsySILPws-T8dBjuAr-4" target="fbwsySILPws-T8dBjuAr-5">
          <mxGeometry relative="1" as="geometry" />
        </mxCell>
        <mxCell id="fbwsySILPws-T8dBjuAr-4" value="&lt;font style=&quot;font-size: 14px;&quot;&gt;&lt;b&gt;FACT TABLE&lt;br&gt;PARTS MANUFACTURING&lt;/b&gt;&lt;/font&gt;" style="rounded=0;whiteSpace=wrap;html=1;fontSize=18;" vertex="1" parent="1">
          <mxGeometry x="340" y="70" width="180" height="100" as="geometry" />
        </mxCell>
        <mxCell id="fbwsySILPws-T8dBjuAr-5" value="&lt;span style=&quot;font-size: 18px;&quot;&gt;BRAND_ID&lt;br&gt;BRAND_NAME&lt;br&gt;&lt;/span&gt;" style="rounded=0;whiteSpace=wrap;html=1;" vertex="1" parent="1">
          <mxGeometry x="630" y="-80" width="180" height="150" as="geometry" />
        </mxCell>
        <mxCell id="fbwsySILPws-T8dBjuAr-6" value="&lt;span style=&quot;font-size: 14px;&quot;&gt;&lt;b&gt;BRAND&lt;/b&gt;&lt;/span&gt;" style="rounded=0;whiteSpace=wrap;html=1;fontSize=18;" vertex="1" parent="1">
          <mxGeometry x="630" y="-140" width="180" height="60" as="geometry" />
        </mxCell>
        <mxCell id="fbwsySILPws-T8dBjuAr-8" value="&lt;span style=&quot;font-size: 18px;&quot;&gt;MODEL_ID&lt;br&gt;BRAND_ID&lt;br&gt;MODEL_NAME&lt;br&gt;&lt;/span&gt;" style="rounded=0;whiteSpace=wrap;html=1;" vertex="1" parent="1">
          <mxGeometry x="630" y="210" width="180" height="150" as="geometry" />
        </mxCell>
        <mxCell id="fbwsySILPws-T8dBjuAr-9" value="&lt;span style=&quot;font-size: 14px;&quot;&gt;&lt;b&gt;MODEL&lt;/b&gt;&lt;/span&gt;" style="rounded=0;whiteSpace=wrap;html=1;fontSize=18;" vertex="1" parent="1">
          <mxGeometry x="630" y="150" width="180" height="60" as="geometry" />
        </mxCell>
        <mxCell id="fbwsySILPws-T8dBjuAr-10" value="&lt;span style=&quot;font-size: 18px;&quot;&gt;ADDRESS_ID&lt;br&gt;STREET&lt;br&gt;PINCODE&lt;br&gt;&lt;/span&gt;" style="rounded=0;whiteSpace=wrap;html=1;" vertex="1" parent="1">
          <mxGeometry x="70" y="510" width="180" height="150" as="geometry" />
        </mxCell>
        <mxCell id="fbwsySILPws-T8dBjuAr-11" value="&lt;span style=&quot;font-size: 14px;&quot;&gt;&lt;b&gt;LOCATION&lt;/b&gt;&lt;/span&gt;" style="rounded=0;whiteSpace=wrap;html=1;fontSize=18;" vertex="1" parent="1">
          <mxGeometry x="70" y="450" width="180" height="60" as="geometry" />
        </mxCell>
        <mxCell id="fbwsySILPws-T8dBjuAr-12" value="&lt;span style=&quot;font-size: 18px;&quot;&gt;DATE_DAY&lt;br&gt;DATE_MONTH&lt;br&gt;DATE_YEAR&lt;br&gt;&lt;/span&gt;" style="rounded=0;whiteSpace=wrap;html=1;" vertex="1" parent="1">
          <mxGeometry x="70" y="210" width="180" height="150" as="geometry" />
        </mxCell>
        <mxCell id="fbwsySILPws-T8dBjuAr-13" value="&lt;span style=&quot;font-size: 14px;&quot;&gt;&lt;b&gt;DATE&lt;/b&gt;&lt;/span&gt;" style="rounded=0;whiteSpace=wrap;html=1;fontSize=18;" vertex="1" parent="1">
          <mxGeometry x="70" y="150" width="180" height="60" as="geometry" />
        </mxCell>
        <mxCell id="fbwsySILPws-T8dBjuAr-14" value="&lt;span style=&quot;font-size: 18px;&quot;&gt;VERSION_ID&lt;br&gt;VERSION_NUMBER&lt;br&gt;&lt;/span&gt;" style="rounded=0;whiteSpace=wrap;html=1;" vertex="1" parent="1">
          <mxGeometry x="630" y="510" width="180" height="150" as="geometry" />
        </mxCell>
        <mxCell id="fbwsySILPws-T8dBjuAr-15" value="&lt;span style=&quot;font-size: 14px;&quot;&gt;&lt;b&gt;VERSION&lt;/b&gt;&lt;/span&gt;" style="rounded=0;whiteSpace=wrap;html=1;fontSize=18;" vertex="1" parent="1">
          <mxGeometry x="630" y="460" width="180" height="60" as="geometry" />
        </mxCell>
        <mxCell id="fbwsySILPws-T8dBjuAr-16" value="&lt;span style=&quot;font-size: 18px;&quot;&gt;COMPONENT_ID&lt;br&gt;COMPONENT_TYPE&lt;br&gt;&lt;/span&gt;" style="rounded=0;whiteSpace=wrap;html=1;" vertex="1" parent="1">
          <mxGeometry x="70" y="-80" width="180" height="150" as="geometry" />
        </mxCell>
        <mxCell id="fbwsySILPws-T8dBjuAr-17" value="&lt;span style=&quot;font-size: 14px;&quot;&gt;&lt;b&gt;COMPONENT&lt;/b&gt;&lt;/span&gt;" style="rounded=0;whiteSpace=wrap;html=1;fontSize=18;" vertex="1" parent="1">
          <mxGeometry x="70" y="-140" width="180" height="60" as="geometry" />
        </mxCell>
      </root>
    </mxGraphModel>
  </diagram>
</mxfile>
